<svg xmlns="http://www.w3.org/2000/svg" viewBox="0 0 500 500" fill="#FF005C">
    <path
        d="M 354 240 L 312 163 L 354 86 H 442 L 484 163 L 442 240 Z M 206 328 L 164 250 L 206 173 H 294 L 335 250 L 294 328 Z M 206 154 L 164 77 L 206 0 H 294 L 335 77 L 294 154 Z M 58 240 L 16 163 L 58 86 H 145 L 187 163 L 145 240 Z M 58 414 L 16 337 L 58 260 H 145 L 187 337 L 145 414 Z M 207 500 L 164 423 L 206 346 H 294 L 335 423 L 294 500 Z M 354 414 L 312 337 L 354 260 H 442 L 484 337 L 442 414 Z" />
</svg>